# xmcd
#
# Track frame offsets: 
#        151
#        11519
#        22427
#        33809
#        46643
#        60748
#        71944
#        85098
#        97027
#        109318
#        118469
#        128638
#        138988
#        152612
#        163823
#        174177
#        185009
#        196271
#        206955
#        215604
#
# Disc length: 3026 seconds
#
# Revision: 2
# Processed by: cddbd v1.5.2PL0 Copyright (c) Steve Scherf et al.
# Submitted via: ExactAudioCopy v1.1
#
DISCID=260bd014
DTITLE=Various Artist - SwingWest! Volume 3: Western Swing
DYEAR=1999
DGENRE=Country
TTITLE0=Bob Wills and His Texas Playboys - New Spanish Two Step
TTITLE1=Merrill Moore - Down The Road A Piece
TTITLE2=Jack Guthrie - This Troubled Mind O' Mine
TTITLE3=Spade Cooley - Oklahoma Stomp
TTITLE4=Tommy Duncan - Gambling Polka Dot Blues
TTITLE5=Ole Rasmussen and His Nebraska Cornhuskers - C Jam Blues
TTITLE6=Tex Williams and The Western Caravan - Smoke! Smoke! Smoke! (Tha
TTITLE6=t Cigarette)
TTITLE7=Cliffie Stone - Watch It, Neighbor
TTITLE8=Merle Travis - Steel Guitar Rag
TTITLE9=Tex Williams and The Western Caravan - Cowboy Opus No. 1
TTITLE10=Cliffie Stone - Barracuda
TTITLE11=Hank Thompson and The Brazos Valley Boys - Wake Up, Irene
TTITLE12=Deuce Spriggens - Red Hot Mama
TTITLE13=Jack Guthrie - Oakie Boogie
TTITLE14=Wade Ray - Cuddle Bug
TTITLE15=Merle Travis - Let's Settle Down (To Runnin' Around Together)
TTITLE16=Merrill Moore - Snatchin' And Grabbin'
TTITLE17=Leon McAuliffe - Red Skin Rag
TTITLE18=Tex Williams and The Western Caravan - Red Wing
TTITLE19=Hank Thompson and The Brazos Valley Boys - Total Strangers
EXTD=
EXTT0=
EXTT1=
EXTT2=
EXTT3=
EXTT4=
EXTT5=
EXTT6=
EXTT7=
EXTT8=
EXTT9=
EXTT10=
EXTT11=
EXTT12=
EXTT13=
EXTT14=
EXTT15=
EXTT16=
EXTT17=
EXTT18=
EXTT19=
PLAYORDER=
